<?xml version="1.0" encoding="UTF-8"?>
<svg id="Phantom_Master_Vertical_Logo" data-name="Phantom Master Vertical Logo" xmlns="http://www.w3.org/2000/svg" viewBox="0 0 800 1100" class="phantom-logo">
  <defs>
    <style>
      .shield {
        fill: #24245a;
      }
      .ghost {
        fill: #ffffff;
      }
      .eyes {
        fill: #24245a;
      }
      .text {
        fill: #24245a;
      }
      .slogan {
        fill: #5c5981;
      }
    </style>
  </defs>

  <!-- SYMBOL GROUP -->
  <g id="Symbol" class="phantom-symbol">
    <path id="Shield" class="shield" d="M400.28,243.15c-84.25,25.15-156.55,44.01-162.83,50.3,0,81.73,15.72,232.62,162.83,318.76,147.12-86.13,162.83-237.02,162.83-318.76-6.29-6.29-78.58-25.15-162.83-50.3h0Z"/>
    <path id="Ghost" class="ghost" d="M400.28,287.16c-55.96,0-99.97,44.01-99.97,99.97v116.94l34.58-34.58,34.58,34.58,30.81-34.58,30.81,34.58,34.58-34.58,34.58,34.58v-116.94c0-55.96-44.01-99.97-99.97-99.97Z"/>
    <circle id="Left_Eye" class="eyes" cx="363.19" cy="368.89" r="23.58"/>
    <circle id="Right_Eye" class="eyes" cx="437.38" cy="368.89" r="23.58" transform="translate(3.19 741.54) rotate(-80.78)"/>
  </g>

  <!-- PHANTOM TEXT GROUP -->
  <g id="Phantom_Text" class="text">
    <path d="M49.82,748.07v-88.64h70.89c3.29,0,6.27.8,8.94,2.4,2.67,1.6,4.83,3.76,6.47,6.47,1.64,2.71,2.47,5.67,2.47,8.88v23.42c0,3.21-.82,6.15-2.47,8.82-1.65,2.67-3.8,4.81-6.47,6.41-2.67,1.6-5.65,2.4-8.94,2.4l-53.14.12v29.71h-17.75ZM68.32,700.36h51.53c.25,0,.43-.06.55-.18.12-.12.19-.27.19-.43v-21.82c0-.25-.06-.43-.19-.55-.12-.12-.31-.19-.55-.19h-51.53c-.25,0-.43.06-.55.19-.12.12-.19.31-.19.55v21.82c0,.17.06.31.19.43.12.12.31.18.55.18Z"/>
    <path d="M147.46,748.07v-88.76h17.75v35.38h55.11v-35.38h17.75v88.76h-17.75v-35.38h-55.11v35.38h-17.75Z"/>
    <path d="M252.5,677.06c0-3.29.8-6.27,2.4-8.94,1.6-2.67,3.74-4.81,6.41-6.41,2.67-1.6,5.65-2.4,8.94-2.4h53.14c3.29,0,6.27.8,8.94,2.4,2.67,1.6,4.83,3.74,6.47,6.41,1.64,2.67,2.47,5.65,2.47,8.94v71.01h-18v-29.22h-53.01v29.22h-17.75v-71.01ZM323.27,701.1v-23.18c0-.25-.06-.43-.19-.55-.12-.12-.31-.19-.55-.19h-51.53c-.25,0-.43.06-.55.19-.12.12-.19.31-.19.55v23.18h53.01Z"/>
    <path d="M355.32,748.07v-88.76h18.86l51.9,61.89v-61.89h18v88.76h-18.86l-52.15-62.13v62.13h-17.75Z"/>
    <path d="M488.96,748.07v-70.89h-35.51v-17.88h88.77v17.88h-35.38v70.89h-17.88Z"/>
    <path d="M568.97,748.07c-3.29,0-6.27-.8-8.94-2.4-2.67-1.6-4.81-3.74-6.41-6.41-1.6-2.67-2.4-5.65-2.4-8.94v-53.26c0-3.29.8-6.27,2.4-8.94,1.6-2.67,3.74-4.81,6.41-6.41,2.67-1.6,5.65-2.4,8.94-2.4h53.26c3.21,0,6.14.8,8.81,2.4,2.67,1.6,4.83,3.74,6.47,6.41,1.64,2.67,2.47,5.65,2.47,8.94v53.26c0,3.29-.82,6.27-2.47,8.94-1.64,2.67-3.8,4.81-6.47,6.41-2.67,1.6-5.61,2.4-8.81,2.4h-53.26ZM569.71,730.19h51.53c.25,0,.43-.06.55-.19.12-.12.19-.31.19-.55v-51.53c0-.25-.06-.43-.19-.55-.12-.12-.31-.19-.55-.19h-51.53c-.25,0-.43.06-.56.19s-.18.31-.18.55v51.53c0,.25.06.43.18.55s.31.19.56.19Z"/>
    <path d="M653.54,748.07v-88.76h18.86l31.07,37.11,30.94-37.11h18.99v88.76h-17.88v-62.26l-32.05,38.34-32.18-38.22v62.13h-17.75Z"/>
  </g>

  <!-- SLOGAN GROUP -->
  <g id="Slogan" class="slogan">
    <path class="st2" d="M56.21,786.88v-6.83l-8.39-11.38h3.21l6.55,8.27,6.52-8.27h3.24l-8.39,11.38v6.83h-2.73Z"/>
    <path class="st2" d="M72.42,786.88c-.61,0-1.16-.15-1.66-.44-.5-.29-.89-.69-1.19-1.19-.3-.5-.44-1.05-.44-1.66v-11.63c0-.61.15-1.16.44-1.66.29-.5.69-.89,1.19-1.19.5-.29,1.05-.44,1.66-.44h11.63c.59,0,1.14.15,1.64.44.51.3.91.69,1.2,1.19.29.5.44,1.05.44,1.66v11.63c0,.61-.15,1.16-.44,1.66-.3.5-.7.89-1.2,1.19-.51.3-1.05.44-1.64.44h-11.63ZM72.49,784.15h11.45c.19,0,.34-.06.46-.19.12-.13.18-.27.18-.44v-11.48c0-.17-.06-.32-.18-.44-.12-.13-.27-.19-.46-.19h-11.45c-.17,0-.32.06-.44.19s-.19.27-.19.44v11.48c0,.17.06.32.19.44s.27.19.44.19Z"/>
    <path class="st2" d="M91.69,786.44c-.5-.29-.89-.69-1.19-1.19-.3-.5-.44-1.05-.44-1.66v-14.92h2.73v14.84c0,.17.06.32.19.44s.27.19.44.19h11.45c.19,0,.34-.06.46-.19.12-.13.18-.27.18-.44v-14.84h2.76v14.92c0,.61-.15,1.16-.44,1.66-.3.5-.7.89-1.2,1.19-.51.3-1.05.44-1.64.44h-11.63c-.61,0-1.16-.15-1.66-.44Z"/>
    <path class="st2" d="M111.05,786.88v-18.18h14.89c.61,0,1.16.15,1.67.46.51.3.91.7,1.2,1.2.29.5.44,1.04.44,1.63v5.11c0,.61-.15,1.16-.44,1.66-.3.5-.7.89-1.2,1.19-.51.3-1.06.44-1.67.44l-12.16.02v6.47h-2.73ZM114.41,777.63h11.45c.19,0,.34-.06.46-.18.12-.12.18-.26.18-.43v-4.96c0-.17-.06-.32-.18-.44-.12-.13-.27-.19-.46-.19h-11.45c-.17,0-.32.06-.44.19-.13.13-.19.27-.19.44v4.96c0,.17.06.31.19.43s.27.18.44.18ZM125.96,786.88l-5.69-6.8h3.56l5.31,6.3v.51h-3.19Z"/>
    <path class="st2" d="M142.42,786.88c-.59,0-1.14-.15-1.64-.44-.51-.29-.91-.69-1.2-1.19-.3-.5-.44-1.05-.44-1.66v-1.06h2.73v.99c0,.17.06.32.19.44.13.13.27.19.44.19h11.48c.17,0,.31-.06.43-.19.12-.13.18-.27.18-.44v-3.74c0-.19-.06-.33-.18-.44-.12-.11-.26-.16-.43-.16h-11.55c-.59,0-1.14-.15-1.64-.46-.51-.3-.91-.7-1.2-1.2-.3-.5-.44-1.05-.44-1.66v-3.89c0-.61.15-1.16.44-1.66.29-.5.7-.89,1.2-1.19.51-.29,1.05-.44,1.64-.44h11.63c.59,0,1.14.15,1.64.44.51.3.91.69,1.2,1.19.29.5.44,1.05.44,1.66v1.06h-2.76v-.99c0-.17-.06-.32-.18-.44-.12-.13-.26-.19-.43-.19h-11.48c-.17,0-.32.06-.44.19-.13.13-.19.27-.19.44v3.74c0,.19.06.33.19.44.13.11.27.16.44.16h11.55c.59,0,1.14.15,1.64.46.51.3.91.7,1.2,1.2.29.5.44,1.05.44,1.66v3.89c0,.61-.15,1.16-.44,1.66-.3.5-.7.89-1.2,1.19-.51.3-1.05.44-1.64.44h-11.63Z"/>
    <path class="st2" d="M160.12,786.88v-18.2h16.69v2.73h-13.93v4.98h11.2v2.78h-11.2v4.98h13.93v2.73h-16.69Z"/>
    <path class="st2" d="M179.44,786.88v-18.18h14.89c.61,0,1.16.15,1.67.46.51.3.91.7,1.2,1.2.29.5.44,1.04.44,1.63v5.11c0,.61-.15,1.16-.44,1.66-.3.5-.7.89-1.2,1.19-.51.3-1.06.44-1.67.44l-12.16.02v6.47h-2.73ZM182.8,777.63h11.45c.19,0,.34-.06.46-.18.12-.12.18-.26.18-.43v-4.96c0-.17-.06-.32-.18-.44-.12-.13-.27-.19-.46-.19h-11.45c-.17,0-.32.06-.44.19-.13.13-.19.27-.19.44v4.96c0,.17.06.31.19.43s.27.18.44.18ZM194.35,786.88l-5.69-6.8h3.56l5.31,6.3v.51h-3.19Z"/>
    <path class="st2" d="M209.7,786.88l-10.54-18.2h3.19l8.72,15.12,8.67-15.12h3.19l-10.52,18.2h-2.71Z"/>
    <path class="st2" d="M225.1,786.88v-18.2h16.69v2.73h-13.93v4.98h11.2v2.78h-11.2v4.98h13.93v2.73h-16.69Z"/>
    <path class="st2" d="M244.41,786.88v-18.18h14.89c.61,0,1.16.15,1.67.46.51.3.91.7,1.2,1.2.29.5.44,1.04.44,1.63v5.11c0,.61-.15,1.16-.44,1.66-.3.5-.7.89-1.2,1.19-.51.3-1.06.44-1.67.44l-12.16.02v6.47h-2.73ZM247.78,777.63h11.45c.19,0,.34-.06.46-.18.12-.12.18-.26.18-.43v-4.96c0-.17-.06-.32-.18-.44-.12-.13-.27-.19-.46-.19h-11.45c-.17,0-.32.06-.44.19-.13.13-.19.27-.19.44v4.96c0,.17.06.31.19.43s.27.18.44.18ZM259.33,786.88l-5.69-6.8h3.56l5.31,6.3v.51h-3.19Z"/>
    <path class="st2" d="M265.22,790.22v-5.97h2.73v2.73c0,.52-.12,1-.35,1.43-.24.43-.56.8-.97,1.12-.41.32-.88.55-1.4.68Z"/>
    <path class="st2" d="M285.35,786.88v-6.83l-8.39-11.38h3.21l6.55,8.27,6.52-8.27h3.24l-8.39,11.38v6.83h-2.73Z"/>
    <path class="st2" d="M301.55,786.88c-.61,0-1.16-.15-1.66-.44-.5-.29-.89-.69-1.19-1.19-.3-.5-.44-1.05-.44-1.66v-11.63c0-.61.15-1.16.44-1.66.29-.5.69-.89,1.19-1.19.5-.29,1.05-.44,1.66-.44h11.63c.59,0,1.14.15,1.64.44.51.3.91.69,1.2,1.19.29.5.44,1.05.44,1.66v11.63c0,.61-.15,1.16-.44,1.66-.3.5-.7.89-1.2,1.19-.51.3-1.05.44-1.64.44h-11.63ZM301.63,784.15h11.45c.19,0,.34-.06.46-.19.12-.13.18-.27.18-.44v-11.48c0-.17-.06-.32-.18-.44-.12-.13-.27-.19-.46-.19h-11.45c-.17,0-.32.06-.44.19s-.19.27-.19.44v11.48c0,.17.06.32.19.44s.27.19.44.19Z"/>
    <path class="st2" d="M320.83,786.44c-.5-.29-.89-.69-1.19-1.19-.3-.5-.44-1.05-.44-1.66v-14.92h2.73v14.84c0,.17.06.32.19.44.13.13.27.19.44.19h11.45c.19,0,.34-.06.46-.19.12-.13.18-.27.18-.44v-14.84h2.76v14.92c0,.61-.15,1.16-.44,1.66-.3.5-.7.89-1.2,1.19-.51.3-1.05.44-1.64.44h-11.63c-.61,0-1.16-.15-1.66-.44Z"/>
    <path class="st2" d="M340.18,786.88v-18.18h14.89c.61,0,1.16.15,1.67.46.51.3.91.7,1.2,1.2.29.5.44,1.04.44,1.63v5.11c0,.61-.15,1.16-.44,1.66-.3.5-.7.89-1.2,1.19-.51.3-1.06.44-1.67.44l-12.16.02v6.47h-2.73ZM343.55,777.63h11.45c.19,0,.34-.06.46-.18s.18-.26.18-.43v-4.96c0-.17-.06-.32-.18-.44-.12-.13-.27-.19-.46-.19h-11.45c-.17,0-.32.06-.44.19-.13.13-.19.27-.19.44v4.96c0,.17.06.31.19.43s.27.18.44.18ZM355.1,786.88l-5.69-6.8h3.56l5.31,6.3v.51h-3.19Z"/>
    <path class="st2" d="M368.37,786.88v-18.2h3.26l12.19,14.51v-14.51h2.76v18.2h-3.26l-12.21-14.54v14.54h-2.73Z"/>
    <path class="st2" d="M389.46,786.88v-18.2h16.69v2.73h-13.93v4.98h11.2v2.78h-11.2v4.98h13.93v2.73h-16.69Z"/>
    <path class="st2" d="M415.6,786.88v-15.47h-7.74v-2.73h18.2v2.73h-7.71v15.47h-2.76Z"/>
    <path class="st2" d="M434.06,786.88l-6.62-18.2h2.91l4.83,13.25,4.83-13.25h2.88l4.85,13.25,4.8-13.25h2.93l-6.62,18.2h-2.25l-5.16-14.16-5.16,14.16h-2.22Z"/>
    <path class="st2" d="M460.22,786.88c-.61,0-1.16-.15-1.66-.44-.5-.29-.89-.69-1.19-1.19-.3-.5-.44-1.05-.44-1.66v-11.63c0-.61.15-1.16.44-1.66.29-.5.69-.89,1.19-1.19.5-.29,1.05-.44,1.66-.44h11.63c.59,0,1.14.15,1.64.44.51.3.91.69,1.2,1.19s.44,1.05.44,1.66v11.63c0,.61-.15,1.16-.44,1.66-.3.5-.7.89-1.2,1.19-.51.3-1.05.44-1.64.44h-11.63ZM460.3,784.15h11.45c.19,0,.34-.06.46-.19.12-.13.18-.27.18-.44v-11.48c0-.17-.06-.32-.18-.44-.12-.13-.27-.19-.46-.19h-11.45c-.17,0-.32.06-.44.19s-.19.27-.19.44v11.48c0,.17.06.32.19.44s.27.19.44.19Z"/>
    <path class="st2" d="M477.92,786.88v-18.18h14.89c.61,0,1.16.15,1.67.46.51.3.91.7,1.2,1.2.29.5.44,1.04.44,1.63v5.11c0,.61-.15,1.16-.44,1.66-.3.5-.7.89-1.2,1.19-.51.3-1.06.44-1.67.44l-12.16.02v6.47h-2.73ZM481.28,777.63h11.45c.19,0,.34-.06.46-.18s.18-.26.18-.43v-4.96c0-.17-.06-.32-.18-.44-.12-.13-.27-.19-.46-.19h-11.45c-.17,0-.32.06-.44.19-.13.13-.19.27-.19.44v4.96c0,.17.06.31.19.43s.27.18.44.18ZM492.84,786.88l-5.69-6.8h3.56l5.31,6.3v.51h-3.19Z"/>
    <path class="st2" d="M498.81,786.88v-18.2h2.76v7.71h5.03l6.47-7.71h3.16v.51l-7.21,8.6,7.23,8.6v.51h-3.19l-6.47-7.71h-5.03v7.71h-2.76Z"/>
    <path class="st2" d="M518.88,790.22v-5.97h2.73v2.73c0,.52-.12,1-.35,1.43-.24.43-.56.8-.97,1.12-.41.32-.88.55-1.4.68Z"/>
    <path class="st2" d="M539,786.88v-6.83l-8.39-11.38h3.21l6.55,8.27,6.52-8.27h3.24l-8.39,11.38v6.83h-2.73Z"/>
    <path class="st2" d="M555.21,786.88c-.61,0-1.16-.15-1.66-.44-.5-.29-.89-.69-1.19-1.19-.3-.5-.44-1.05-.44-1.66v-11.63c0-.61.15-1.16.44-1.66.29-.5.69-.89,1.19-1.19.5-.29,1.05-.44,1.66-.44h11.63c.59,0,1.14.15,1.64.44.51.3.91.69,1.2,1.19s.44,1.05.44,1.66v11.63c0,.61-.15,1.16-.44,1.66-.3.5-.7.89-1.2,1.19-.51.3-1.05.44-1.64.44h-11.63ZM555.29,784.15h11.45c.19,0,.34-.06.46-.19.12-.13.18-.27.18-.44v-11.48c0-.17-.06-.32-.18-.44-.12-.13-.27-.19-.46-.19h-11.45c-.17,0-.32.06-.44.19s-.19.27-.19.44v11.48c0,.17.06.32.19.44s.27.19.44.19Z"/>
    <path class="st2" d="M574.49,786.44c-.5-.29-.89-.69-1.19-1.19-.3-.5-.44-1.05-.44-1.66v-14.92h2.73v14.84c0,.17.06.32.19.44s.27.19.44.19h11.45c.19,0,.34-.06.46-.19.12-.13.18-.27.18-.44v-14.84h2.76v14.92c0,.61-.15,1.16-.44,1.66-.3.5-.7.89-1.2,1.19-.51.3-1.05.44-1.64.44h-11.63c-.61,0-1.16-.15-1.66-.44Z"/>
    <path class="st2" d="M593.84,786.88v-18.18h14.89c.61,0,1.16.15,1.67.46.51.3.91.7,1.2,1.2.29.5.44,1.04.44,1.63v5.11c0,.61-.15,1.16-.44,1.66-.3.5-.7.89-1.2,1.19-.51.3-1.06.44-1.67.44l-12.16.02v6.47h-2.73ZM597.2,777.63h11.45c.19,0,.34-.06.46-.18s.18-.26.18-.43v-4.96c0-.17-.06-.32-.18-.44-.12-.13-.27-.19-.46-.19h-11.45c-.17,0-.32.06-.44.19-.13.13-.19.27-.19.44v4.96c0,.17.06.31.19.43s.27.18.44.18ZM608.76,786.88l-5.69-6.8h3.56l5.31,6.3v.51h-3.19Z"/>
    <path class="st2" d="M622.03,786.88v-18.18h14.89c.61,0,1.16.15,1.67.46.51.3.91.7,1.2,1.2.29.5.44,1.04.44,1.63v5.11c0,.61-.15,1.16-.44,1.66-.3.5-.7.89-1.2,1.19-.51.3-1.06.44-1.67.44l-12.16.02v6.47h-2.73ZM625.4,777.63h11.45c.19,0,.34-.06.46-.18s.18-.26.18-.43v-4.96c0-.17-.06-.32-.18-.44-.12-.13-.27-.19-.46-.19h-11.45c-.17,0-.32.06-.44.19-.13.13-.19.27-.19.44v4.96c0,.17.06.31.19.43s.27.18.44.18Z"/>
    <path class="st2" d="M642.03,786.88v-18.18h14.89c.61,0,1.16.15,1.67.46.51.3.91.7,1.2,1.2.29.5.44,1.04.44,1.63v5.11c0,.61-.15,1.16-.44,1.66-.3.5-.7.89-1.2,1.19-.51.3-1.06.44-1.67.44l-12.16.02v6.47h-2.73ZM645.39,777.63h11.45c.19,0,.34-.06.46-.18s.18-.26.18-.43v-4.96c0-.17-.06-.32-.18-.44-.12-.13-.27-.19-.46-.19h-11.45c-.17,0-.32.06-.44.19-.13.13-.19.27-.19.44v4.96c0,.17.06.31.19.43s.27.18.44.18ZM656.95,786.88l-5.69-6.8h3.56l5.31,6.3v.51h-3.19Z"/>
    <path class="st2" d="M662.81,786.88v-18.2h2.73v18.2h-2.73Z"/>
    <path class="st2" d="M678.31,786.88l-10.54-18.2h3.19l8.72,15.12,8.67-15.12h3.19l-10.52,18.2h-2.71Z"/>
    <path class="st2" d="M693,771.96c0-.61.15-1.16.44-1.66.29-.5.69-.89,1.19-1.19.5-.29,1.05-.44,1.66-.44h11.6c.61,0,1.16.15,1.67.44.51.3.91.69,1.2,1.19.29.5.44,1.05.44,1.66v14.92h-2.76v-6.37h-12.72v6.37h-2.73v-14.92ZM708.45,777.78v-5.74c0-.17-.06-.32-.18-.44-.12-.13-.27-.19-.46-.19h-11.45c-.17,0-.32.06-.44.19-.13.13-.19.27-.19.44v5.74h12.72Z"/>
    <path class="st2" d="M717.37,786.88c-.61,0-1.16-.15-1.66-.44-.5-.29-.89-.69-1.19-1.19-.3-.5-.44-1.05-.44-1.66v-11.63c0-.61.15-1.16.44-1.66.29-.5.69-.89,1.19-1.19.5-.29,1.05-.44,1.66-.44h14.87v2.73h-14.49c-.27,0-.49.09-.67.27-.18.18-.27.4-.27.67v10.87c0,.27.09.49.27.67.18.18.4.27.67.27h14.49v2.73h-14.87Z"/>
    <path class="st2" d="M742.28,786.88v-6.83l-8.39-11.38h3.21l6.55,8.27,6.52-8.27h3.24l-8.39,11.38v6.83h-2.73Z"/>
  </g>
</svg>