<svg xmlns="http://www.w3.org/2000/svg" style="display: none;">
    <!-- Copy Icon -->
    <symbol id="icon-copy" viewBox="0 0 448 512">
        <path fill="currentColor" d="M433.941 65.941l-51.882-51.882A48 48 0 0 0 348.118 0H176c-26.51 0-48 21.49-48 48v48H48c-26.51 0-48 21.49-48 48v320c0 26.51 21.49 48 48 48h224c26.51 0 48-21.49 48-48v-48h80c26.51 0 48-21.49 48-48V99.882a48 48 0 0 0-14.059-33.941zM266 464H54a6 6 0 0 1-6-6V150a6 6 0 0 1 6-6h74v224c0 26.51 21.49 48 48 48h96v42a6 6 0 0 1-6 6zm128-96H182a6 6 0 0 1-6-6V54a6 6 0 0 1 6-6h106v88c0 13.255 10.745 24 24 24h88v202a6 6 0 0 1-6 6zm6-256h-64V48h9.632c1.591 0 3.117.632 4.243 1.757l48.368 48.368a6 6 0 0 1 1.757 4.243V112z"/>
    </symbol>

    <!-- Check Icon -->
    <symbol id="icon-check" viewBox="0 0 512 512">
        <path fill="currentColor" d="M173.898 439.404l-166.4-166.4c-9.997-9.997-9.997-26.206 0-36.204l36.203-36.204c9.997-9.998 26.207-9.998 36.204 0L192 312.69 432.095 72.596c9.997-9.997 26.207-9.997 36.204 0l36.203 36.204c9.997 9.997 9.997 26.206 0 36.204l-294.4 294.401c-9.998 9.997-26.207 9.997-36.204-.001z"/>
    </symbol>

    <!-- Times/Close Icon -->
    <symbol id="icon-times" viewBox="0 0 352 512">
        <path fill="currentColor" d="M242.72 256l100.07-100.07c12.28-12.28 12.28-32.19 0-44.48l-22.24-22.24c-12.28-12.28-32.19-12.28-44.48 0L176 189.28 75.93 89.21c-12.28-12.28-32.19-12.28-44.48 0L9.21 111.45c-12.28 12.28-12.28 32.19 0 44.48L109.28 256 9.21 356.07c-12.28 12.28-12.28 32.19 0 44.48l22.24 22.24c12.28 12.28 32.2 12.28 44.48 0L176 322.72l100.07 100.07c12.28 12.28 32.2 12.28 44.48 0l22.24-22.24c12.28-12.28 12.28-32.19 0-44.48L242.72 256z"/>
    </symbol>

    <!-- Shield Icon -->
    <symbol id="icon-shield" viewBox="0 0 512 512">
        <path fill="currentColor" d="M466.5 83.7l-192-80a48.15 48.15 0 0 0-36.9 0l-192 80C27.7 91.1 16 108.6 16 128c0 198.5 114.5 335.7 221.5 380.3 11.8 4.9 25.1 4.9 36.9 0C360.1 472.6 496 349.3 496 128c0-19.4-11.7-36.9-29.5-44.3zM256.1 446.3l-.1-381 175.9 73.3c-3.3 151.4-82.1 261.1-175.8 307.7z"/>
    </symbol>

    <!-- Rocket Icon -->
    <symbol id="icon-rocket" viewBox="0 0 512 512">
        <path fill="currentColor" d="M505.12019,19.09375c-1.18945-5.53125-6.65819-11-12.207-12.1875C460.716,0,435.507,0,410.40747,0,307.17523,0,245.26909,55.20312,199.05238,128H94.83772c-16.34763.01562-35.55658,11.875-42.88664,26.48438L2.51562,253.29688A28.4,28.4,0,0,0,0,264a24.00867,24.00867,0,0,0,24.00582,24H127.81618l-22.47457,22.46875c-11.36521,11.36133-12.99607,32.25781,0,45.25L156.24582,406.625c11.15623,11.1875,32.15619,13.15625,45.27726,0l22.47457-22.46875V488a24.00867,24.00867,0,0,0,24.00581,24,28.55934,28.55934,0,0,0,10.707-2.51562l98.72834-49.39063c14.62888-7.29687,26.50776-26.5,26.50776-42.85937V312.79688c72.59753-46.3125,128.03493-108.40626,128.03493-211.09376C512.07526,76.5,512.07526,51.29688,505.12019,19.09375ZM384.04033,168A40,40,0,1,1,424.05,128,40.02322,40.02322,0,0,1,384.04033,168Z"/>
    </symbol>

    <!-- Server Icon -->
    <symbol id="icon-server" viewBox="0 0 512 512">
        <path fill="currentColor" d="M480 160H32c-17.673 0-32-14.327-32-32V64c0-17.673 14.327-32 32-32h448c17.673 0 32 14.327 32 32v64c0 17.673-14.327 32-32 32zm-48-88c-13.255 0-24 10.745-24 24s10.745 24 24 24 24-10.745 24-24-10.745-24-24-24zm-64 0c-13.255 0-24 10.745-24 24s10.745 24 24 24 24-10.745 24-24-10.745-24-24-24zm112 248H32c-17.673 0-32-14.327-32-32v-64c0-17.673 14.327-32 32-32h448c17.673 0 32 14.327 32 32v64c0 17.673-14.327 32-32 32zm-48-88c-13.255 0-24 10.745-24 24s10.745 24 24 24 24-10.745 24-24-10.745-24-24-24zm-64 0c-13.255 0-24 10.745-24 24s10.745 24 24 24 24-10.745 24-24-10.745-24-24-24zm112 248H32c-17.673 0-32-14.327-32-32v-64c0-17.673 14.327-32 32-32h448c17.673 0 32 14.327 32 32v64c0 17.673-14.327 32-32 32zm-48-88c-13.255 0-24 10.745-24 24s10.745 24 24 24 24-10.745 24-24-10.745-24-24-24zm-64 0c-13.255 0-24 10.745-24 24s10.745 24 24 24 24-10.745 24-24-10.745-24-24-24z"/>
    </symbol>

    <!-- Code Icon -->
    <symbol id="icon-code" viewBox="0 0 640 512">
        <path fill="currentColor" d="M278.9 511.5l-61-17.7c-6.4-1.8-10-8.5-8.2-14.9L346.2 8.7c1.8-6.4 8.5-10 14.9-8.2l61 17.7c6.4 1.8 10 8.5 8.2 14.9L293.8 503.3c-1.9 6.4-8.5 10.1-14.9 8.2zm-114-112.2l43.5-46.4c4.6-4.9 4.3-12.7-.8-17.2L117 256l90.6-79.7c5.1-4.5 5.5-12.3.8-17.2l-43.5-46.4c-4.5-4.8-12.1-5.1-17-.5L3.8 247.2c-5.1 4.7-5.1 12.8 0 17.5l144.1 135.1c4.9 4.6 12.5 4.4 17-.5zm327.2.6l144.1-135.1c5.1-4.7 5.1-12.8 0-17.5L492.1 112.1c-4.8-4.5-12.4-4.3-17 .5L431.6 159c-4.6 4.9-4.3 12.7.8 17.2L523 256l-90.6 79.7c-5.1 4.5-5.5 12.3-.8 17.2l43.5 46.4c4.5 4.9 12.1 5.1 17 .6z"/>
    </symbol>

    <!-- Globe Icon -->
    <symbol id="icon-globe" viewBox="0 0 496 512">
        <path fill="currentColor" d="M336.5 160C322 70.7 287.8 8 248 8s-74 62.7-88.5 152h177zM152 256c0 22.2 1.2 43.5 3.3 64h185.3c2.1-20.5 3.3-41.8 3.3-64s-1.2-43.5-3.3-64H155.3c-2.1 20.5-3.3 41.8-3.3 64zm324.7-96c-28.6-67.9-86.5-120.4-158-141.6 24.4 33.8 41.2 84.7 50 141.6h108zM177.2 18.4C105.8 39.6 47.8 92.1 19.3 160h108c8.7-56.9 25.5-107.8 49.9-141.6zM487.4 192H372.7c2.1 21 3.3 42.5 3.3 64s-1.2 43-3.3 64h114.6c5.5-20.5 8.6-41.8 8.6-64s-3.1-43.5-8.5-64zM120 256c0-21.5 1.2-43 3.3-64H8.6C3.2 212.5 0 233.8 0 256s3.2 43.5 8.6 64h114.6c-2-21-3.2-42.5-3.2-64zm39.5 96c14.5 89.3 48.7 152 88.5 152s74-62.7 88.5-152h-177zm159.3 141.6c71.4-21.2 129.4-73.7 158-141.6h-108c-8.8 56.9-25.6 107.8-50 141.6zM19.3 352c28.6 67.9 86.5 120.4 158 141.6-24.4-33.8-41.2-84.7-50-141.6h-108z"/>
    </symbol>

    <!-- Ghost Icon -->
    <symbol id="icon-ghost" viewBox="0 0 512 512">
        <!-- Phantom Ghost Figure -->
        <path fill="currentColor" d="M256 5c-140 0-255 115-255 255v246l63-63 64 63 64-63 64 63 64-63 64 63 63-63 64 63V260C511 120 396 5 256 5z"/>
        <!-- Eyes -->
        <circle fill="#0F1729" cx="175" cy="240" r="52"/>
        <circle fill="#0F1729" cx="337" cy="240" r="52"/>
    </symbol>

    <!-- MultiGhost Icon (Server + Ghost combination) -->
    <symbol id="icon-multighost" viewBox="0 0 512 512">
        <!-- Server Stack -->
        <rect x="2" y="10" width="508" height="110" rx="15" fill="currentColor" opacity="0.4"/>
        <rect x="2" y="150" width="508" height="110" rx="15" fill="currentColor" opacity="0.4"/>
        <rect x="2" y="290" width="508" height="110" rx="15" fill="currentColor" opacity="0.4"/>
        <!-- Server Lights -->
        <circle cx="460" cy="65" r="16" fill="currentColor" opacity="0.6"/>
        <circle cx="415" cy="65" r="16" fill="currentColor" opacity="0.6"/>
        <circle cx="460" cy="205" r="16" fill="currentColor" opacity="0.6"/>
        <circle cx="415" cy="205" r="16" fill="currentColor" opacity="0.6"/>
        <circle cx="460" cy="345" r="16" fill="currentColor" opacity="0.6"/>
        <circle cx="415" cy="345" r="16" fill="currentColor" opacity="0.6"/>

        <!-- Phantom Ghost Overlay (even larger) -->
        <path fill="currentColor" d="M256 35c-115 0-210 95-210 210v265l52-52 53 52 52-52 53 52 52-52 53 52 52-52 53 52V245c0-115-95-210-210-210z"/>
        <!-- Eyes -->
        <circle fill="#0F1729" cx="178" cy="210" r="45"/>
        <circle fill="#0F1729" cx="334" cy="210" r="45"/>
    </symbol>

    <!-- Bitcoin Icon -->
    <symbol id="icon-bitcoin" viewBox="0 0 512 512">
        <path fill="currentColor" d="M504 256c0 136.967-111.033 248-248 248S8 392.967 8 256 119.033 8 256 8s248 111.033 248 248zm-141.651-35.33c4.937-32.999-20.191-50.739-54.55-62.573l11.146-44.702-27.213-6.781-10.851 43.524c-7.154-1.783-14.502-3.464-21.803-5.13l10.929-43.81-27.198-6.781-11.153 44.686c-5.922-1.349-11.735-2.682-17.377-4.084l.031-.14-37.53-9.37-7.239 29.062s20.191 4.627 19.765 4.913c11.022 2.751 13.014 10.044 12.68 15.825l-12.696 50.925c.76.194 1.744.473 2.829.907-.907-.225-1.876-.473-2.876-.713l-17.796 71.338c-1.349 3.348-4.767 8.37-12.471 6.464.271.395-19.78-4.937-19.78-4.937l-13.51 31.147 35.414 8.827c6.588 1.651 13.045 3.379 19.4 5.006l-11.262 45.213 27.182 6.781 11.153-44.733a1038.209 1038.209 0 0 0 21.687 5.627l-11.115 44.523 27.213 6.781 11.262-45.128c46.404 8.781 81.299 5.239 95.986-36.727 11.836-33.79-.589-53.281-25.004-65.991 17.78-4.098 31.174-15.792 34.747-39.949zm-62.177 87.179c-8.41 33.79-65.308 15.523-83.755 10.943l14.944-59.899c18.446 4.603 77.6 13.717 68.811 48.956zm8.417-87.667c-7.673 30.736-55.031 15.12-70.393 11.292l13.548-54.327c15.363 3.828 64.836 10.973 56.845 43.035z"/>
    </symbol>

    <!-- Monero Icon -->
    <symbol id="icon-monero" viewBox="0 0 512 512">
        <!-- Top M shape -->
        <path fill="none" stroke="currentColor" stroke-width="16" stroke-linecap="round" stroke-linejoin="round" d="M256,24C128,24,24,128,24,256c0,25.6,4.2,48.96,11.84,72h69.44V153.44L256,304.64l150.72-151.2V328h69.44c7.68-23.04,11.84-46.4,11.84-72C488,128,384,24,256,24z"/>
        <!-- Bottom M shape -->
        <path fill="none" stroke="currentColor" stroke-width="16" stroke-linecap="round" stroke-linejoin="round" d="M221.28,319.52l-65.76-65.76v122.72H105.28H57.76C98.4,443.36,172,488,256,488s157.6-44.64,198.24-111.52h-97.76v-122.72l-65.76,65.76L256,354.24L221.28,319.52z"/>
    </symbol>

    <!-- Turkish Flag Icon (Icons8) -->
    <symbol id="flag-tr" viewBox="0 0 48 48">
        <circle cx="24" cy="24" r="20" fill="#ff3d00"/>
        <path fill="#fff" d="M21.789,23.188l-0.008-2.73l1.609,2.199l2.594-0.848l-1.598,2.211L26,26.223l-2.598-0.836l-1.594,2.215l-0.012-2.73l-2.598-0.832L21.789,23.188z"/>
        <path fill="#fff" d="M18.473,31.086c-3.898,0-7.063-3.16-7.063-7.059s3.16-7.059,7.063-7.059c0.633,0,1.242,0.09,1.828,0.246c-1.219-0.75-2.648-1.191-4.184-1.191c-4.418,0-8,3.582-8,8s3.582,8,8,8c1.535,0,2.965-0.438,4.184-1.188C19.715,30.996,19.105,31.086,18.473,31.086z"/>
    </symbol>

    <!-- US Flag Icon (Icons8) -->
    <symbol id="flag-us" viewBox="0 0 48 48">
        <path fill="#3f51b5" d="M30,5V4.918C28.106,4.323,26.091,4,24,4C12.954,4,4,12.954,4,24c0,0.675,0.036,1.342,0.101,2H30V5z"/>
        <path fill="none" d="M30.223,5C30.147,4.975,30.076,4.942,30,4.918V5H30.223z"/>
        <path fill="#eceff1" d="M30,11h9.18c-0.957-1.116-2.038-2.117-3.217-3H30V11z"/>
        <path fill="#eceff1" d="M43.899,26H30H4.101c0.102,1.028,0.303,2.024,0.555,3h38.689C43.596,28.024,43.797,27.028,43.899,26z"/>
        <path fill="#eceff1" d="M38.271,38H9.729c1.127,1.149,2.398,2.149,3.773,3h20.996C35.873,40.149,37.144,39.149,38.271,38z"/>
        <path fill="#eceff1" d="M42.325,32H5.675c0.459,1.05,1.005,2.053,1.63,3h33.39C41.32,34.053,41.865,33.05,42.325,32z"/>
        <path fill="#eceff1" d="M30,17h12.716c-0.391-1.044-0.861-2.047-1.413-3H30V17z"/>
        <path fill="#eceff1" d="M30,23h13.95c-0.051-1.02-0.153-2.026-0.351-3H30V23z"/>
        <path fill="#f44336" d="M30,8h5.964c-1.723-1.29-3.651-2.316-5.741-3H30V8z"/>
        <path fill="#f44336" d="M30,14h11.303c-0.617-1.066-1.326-2.07-2.122-3H30V14z"/>
        <path fill="#f44336" d="M30,20h13.598c-0.21-1.034-0.52-2.03-0.883-3H30V20z"/>
        <path fill="#f44336" d="M30,26h13.899C43.964,25.342,44,24.675,44,24c0-0.338-0.034-0.667-0.05-1H30V26z"/>
        <path fill="#f44336" d="M43.344,29H4.656c0.266,1.033,0.599,2.039,1.02,3h36.649C42.745,31.039,43.078,30.033,43.344,29z"/>
        <path fill="#f44336" d="M40.695,35H7.305c0.711,1.078,1.523,2.082,2.424,3h28.543C39.172,37.082,39.984,36.078,40.695,35z"/>
        <path fill="#f44336" d="M13.502,41c3.054,1.89,6.642,3,10.498,3s7.444-1.11,10.498-3H13.502z"/>
        <path fill="#fff" d="M10.25,13l0.465,0.988l1.035,0.156L11,14.914L11.18,16l-0.93-0.512L9.32,16l0.18-1.086l-0.75-0.77l1.035-0.156L10.25,13z"/>
        <path fill="#fff" d="M14.25,13l0.465,0.988l1.035,0.156L15,14.914L15.18,16l-0.93-0.512L13.32,16l0.18-1.086l-0.75-0.77l1.035-0.156L14.25,13z"/>
        <path fill="#fff" d="M6.25,15.488L7.18,16L7,14.914l0.75-0.77l-1.035-0.156l-0.004-0.01c-0.33,0.568-0.633,1.153-0.907,1.755L6.25,15.488z"/>
        <path fill="#fff" d="M18.25,13l0.465,0.988l1.035,0.156L19,14.914L19.18,16l-0.93-0.512L17.32,16l0.18-1.086l-0.75-0.77l1.035-0.156L18.25,13z"/>
        <path fill="#fff" d="M22.25,13l0.465,0.988l1.035,0.156L23,14.914L23.18,16l-0.93-0.512L21.32,16l0.18-1.086l-0.75-0.77l1.035-0.156L22.25,13z"/>
        <path fill="#fff" d="M26,13l0.465,0.988l1.035,0.156l-0.75,0.77L26.93,16L26,15.488L25.07,16l0.18-1.086l-0.75-0.77l1.035-0.156L26,13z"/>
        <path fill="#fff" d="M10.25,21l0.465,0.988l1.035,0.156L11,22.914L11.18,24l-0.93-0.512L9.32,24l0.18-1.086l-0.75-0.77l1.035-0.156L10.25,21z"/>
        <path fill="#fff" d="M14.25,21l0.465,0.988l1.035,0.156L15,22.914L15.18,24l-0.93-0.512L13.32,24l0.18-1.086l-0.75-0.77l1.035-0.156L14.25,21z"/>
        <path fill="#fff" d="M18.25,21l0.465,0.988l1.035,0.156L19,22.914L19.18,24l-0.93-0.512L17.32,24l0.18-1.086l-0.75-0.77l1.035-0.156L18.25,21z"/>
        <path fill="#fff" d="M6.25,21l0.465,0.988l1.035,0.156L7,22.914L7.18,24l-0.93-0.512L5.32,24l0.18-1.086l-0.75-0.77l1.035-0.156L6.25,21z"/>
        <path fill="#fff" d="M22.25,21l0.465,0.988l1.035,0.156L23,22.914L23.18,24l-0.93-0.512L21.32,24l0.18-1.086l-0.75-0.77l1.035-0.156L22.25,21z"/>
        <path fill="#fff" d="M26,21l0.465,0.988l1.035,0.156l-0.75,0.77L26.93,24L26,23.488L25.07,24l0.18-1.086l-0.75-0.77l1.035-0.156L26,21z"/>
        <path fill="#fff" d="M11.25,17l0.465,0.988l1.035,0.156L12,18.914L12.18,20l-0.93-0.512L10.32,20l0.18-1.086l-0.75-0.77l1.035-0.156L11.25,17z"/>
        <path fill="#fff" d="M15.25,17l0.465,0.988l1.035,0.156L16,18.914L16.18,20l-0.93-0.512L14.32,20l0.18-1.086l-0.75-0.77l1.035-0.156L15.25,17z"/>
        <path fill="#fff" d="M7.25,17l0.465,0.988l1.035,0.156L8,18.914L8.18,20l-0.93-0.512L6.32,20l0.18-1.086l-0.75-0.77l1.035-0.156L7.25,17z"/>
        <path fill="#fff" d="M19.25,17l0.465,0.988l1.035,0.156L20,18.914L20.18,20l-0.93-0.512L18.32,20l0.18-1.086l-0.75-0.77l1.035-0.156L19.25,17z"/>
        <path fill="#fff" d="M23.25,17l0.465,0.988l1.035,0.156L24,18.914L24.18,20l-0.93-0.512L22.32,20l0.18-1.086l-0.75-0.77l1.035-0.156L23.25,17z"/>
        <path fill="#fff" d="M27,17l0.465,0.988l1.035,0.156l-0.75,0.77L27.93,20L27,19.488L26.07,20l0.18-1.086l-0.75-0.77l1.035-0.156L27,17z"/>
        <path fill="#fff" d="M11.25,9l0.465,0.988l1.035,0.156L12,10.914L12.18,12l-0.93-0.512L10.32,12l0.18-1.086l-0.75-0.77l1.035-0.156L11.25,9z"/>
        <path fill="#fff" d="M15.25,9l0.465,0.988l1.035,0.156L16,10.914L16.18,12l-0.93-0.512L14.32,12l0.18-1.086l-0.75-0.77l1.035-0.156L15.25,9z"/>
        <path fill="#fff" d="M19.25,9l0.465,0.988l1.035,0.156L20,10.914L20.18,12l-0.93-0.512L18.32,12l0.18-1.086l-0.75-0.77l1.035-0.156L19.25,9z"/>
        <path fill="#fff" d="M23.25,9l0.465,0.988l1.035,0.156L24,10.914L24.18,12l-0.93-0.512L22.32,12l0.18-1.086l-0.75-0.77l1.035-0.156L23.25,9z"/>
        <path fill="#fff" d="M27,9l0.465,0.988l1.035,0.156l-0.75,0.77L27.93,12L27,11.488L26.07,12l0.18-1.086l-0.75-0.77l1.035-0.156L27,9z"/>
        <path fill="#fff" d="M15.18,8L15,6.914l0.75-0.77l-0.551-0.083c-0.589,0.289-1.16,0.606-1.715,0.95L13.32,8l0.93-0.512L15.18,8z"/>
        <path fill="#fff" d="M18.25,5l0.465,0.988l1.035,0.156L19,6.914L19.18,8l-0.93-0.512L17.32,8l0.18-1.086l-0.75-0.77l1.035-0.156L18.25,5z"/>
        <path fill="#fff" d="M22.25,5l0.465,0.988l1.035,0.156L23,6.914L23.18,8l-0.93-0.512L21.32,8l0.18-1.086l-0.75-0.77l1.035-0.156L22.25,5z"/>
        <path fill="#fff" d="M26,5l0.465,0.988L27.5,6.145l-0.75,0.77L26.93,8L26,7.488L25.07,8l0.18-1.086l-0.75-0.77l1.035-0.156L26,5z"/>
    </symbol>

    <!-- Tor Browser Icon (Icons8 - Outlined) -->
    <symbol id="icon-tor" viewBox="0 0 24 24">
        <path fill="currentColor" d="M 11.984375 1.9863281 A 1.0001 1.0001 0 0 0 11.769531 2.0136719 C 6.3655348 2.1380362 2 6.5688093 2 12.001953 C 2 17.437072 6.3686742 21.868963 11.775391 21.990234 A 1.0001 1.0001 0 0 0 12.21875 21.990234 C 17.628186 21.872058 22 17.439046 22 12.001953 C 22 6.5674931 17.632372 2.1359749 12.226562 2.0136719 A 1.0001 1.0001 0 0 0 11.984375 1.9863281 z M 11 4.0703125 L 11 5.8359375 A 1.0001 1.0001 0 0 0 11 6.1601562 L 11 8.8320312 A 1.0001 1.0001 0 0 0 11 9.1601562 L 11 14.832031 A 1.0001 1.0001 0 0 0 11 15.160156 L 11 17.835938 A 1.0001 1.0001 0 0 0 11 18.160156 L 11 19.933594 C 7.0457694 19.443107 4 16.092608 4 12.001953 C 4 7.9112987 7.0457694 4.5607993 11 4.0703125 z M 13 4.0703125 C 16.95423 4.5607993 20 7.9112987 20 12.001953 C 20 16.092608 16.95423 19.443107 13 19.933594 L 13 18.921875 C 16.381415 18.432208 19 15.514518 19 12.001953 C 19 8.4893888 16.381415 5.571698 13 5.0820312 L 13 4.0703125 z M 13 7.1015625 C 15.287832 7.5623767 17 9.5739503 17 12.001953 C 17 14.429956 15.287832 16.441529 13 16.902344 L 13 15.798828 C 14.706265 15.342418 16 13.84532 16 12.001953 C 16 10.158673 14.706143 8.6615709 13 8.2050781 L 13 7.1015625 z M 13 10.410156 C 13.564262 10.761465 14 11.28004 14 12.001953 C 14 12.723788 13.564158 13.240467 13 13.591797 L 13 10.410156 z"/>
    </symbol>
</svg>