<?xml version="1.0" encoding="UTF-8"?>
<svg id="Phantom_Master_Horizontal_Logo" data-name="Phantom Master Horizontal Logo" xmlns="http://www.w3.org/2000/svg" viewBox="0 0 2400 520" class="phantom-logo">
  <defs>
    <style>
      .shield { fill: #14532D;
      }
      .ghost { fill: #ffffff;
      }
      .eyes { fill: #166534;
      }
      .text { fill: #14532D;
      }
      .slogan { fill: #4ADE80;
      }
    </style>
  </defs>
  <g id="Symbol" class="phantom-symbol">
    <path id="Shield" class="shield" d="M228.03,57.4c-92.5,27.61-171.88,48.32-178.78,55.22,0,89.74,17.26,255.4,178.78,349.97,161.53-94.57,178.78-260.23,178.78-349.97-6.91-6.91-86.28-27.61-178.78-55.22h0Z"/>
    <path id="Ghost" class="ghost" d="M228.03,105.72c-61.44,0-109.76,48.32-109.76,109.76v128.39l37.96-37.96,37.96,37.96,33.83-37.96,33.83,37.96,37.96-37.96,37.96,37.96v-128.39c0-61.44-48.32-109.76-109.76-109.76Z"/>
    <circle id="Left_Eye"  class="eyes" cx="187.3" cy="195.46" r="25.89"/>
    <circle id="Right_Eye"  class="eyes" cx="268.76" cy="195.46" r="25.89" transform="translate(32.78 429.44) rotate(-80.78)"/>
  </g>
  <g id="Slogan" class="slogan">
    <path class="st2" d="M512.77,431.18v-17.87l-21.98-29.79h8.41l17.14,21.65,17.08-21.65h8.47l-21.98,29.79v17.87h-7.15Z"/>
    <path class="st2" d="M555.2,431.18c-1.59,0-3.03-.39-4.34-1.16-1.3-.77-2.34-1.81-3.11-3.11-.77-1.3-1.16-2.75-1.16-4.34v-30.45c0-1.59.39-3.03,1.16-4.34.77-1.3,1.81-2.34,3.11-3.11,1.3-.77,2.75-1.16,4.34-1.16h30.45c1.54,0,2.98.39,4.3,1.16,1.32.77,2.37,1.81,3.14,3.11.77,1.3,1.16,2.75,1.16,4.34v30.45c0,1.59-.39,3.04-1.16,4.34-.77,1.3-1.82,2.34-3.14,3.11-1.32.77-2.76,1.16-4.3,1.16h-30.45ZM555.4,424.03h29.99c.49,0,.88-.17,1.19-.5.31-.33.46-.72.46-1.16v-30.05c0-.44-.15-.83-.46-1.16-.31-.33-.71-.5-1.19-.5h-29.99c-.44,0-.83.17-1.16.5s-.5.72-.5,1.16v30.05c0,.44.17.83.5,1.16s.72.5,1.16.5Z"/>
    <path class="st2" d="M605.68,430.03c-1.3-.77-2.34-1.81-3.11-3.11-.77-1.3-1.16-2.75-1.16-4.34v-39.05h7.15v38.86c0,.44.17.83.5,1.16s.72.5,1.16.5h29.99c.49,0,.88-.17,1.19-.5.31-.33.46-.72.46-1.16v-38.86h7.22v39.05c0,1.59-.39,3.04-1.16,4.34-.77,1.3-1.82,2.34-3.14,3.11-1.32.77-2.76,1.16-4.3,1.16h-30.45c-1.59,0-3.03-.39-4.34-1.16Z"/>
    <path class="st2" d="M656.35,431.18v-47.59h38.99c1.59,0,3.04.4,4.37,1.19,1.32.79,2.37,1.84,3.14,3.14.77,1.3,1.16,2.73,1.16,4.27v13.37c0,1.59-.39,3.03-1.16,4.34-.77,1.3-1.82,2.34-3.14,3.11-1.32.77-2.78,1.16-4.37,1.16l-31.84.07v16.95h-7.15ZM665.15,406.96h29.99c.49,0,.88-.15,1.19-.46.31-.31.46-.68.46-1.13v-12.97c0-.44-.16-.83-.46-1.16-.31-.33-.71-.5-1.19-.5h-29.99c-.44,0-.83.17-1.16.5-.33.33-.5.72-.5,1.16v12.97c0,.44.17.82.5,1.13s.72.46,1.16.46ZM695.4,431.18l-14.89-17.81h9.33l13.9,16.48v1.32h-8.34Z"/>
    <path class="st2" d="M738.49,431.18c-1.54,0-2.98-.39-4.3-1.16-1.32-.77-2.37-1.81-3.14-3.11-.77-1.3-1.16-2.75-1.16-4.34v-2.78h7.15v2.58c0,.44.17.83.5,1.16.33.33.72.5,1.16.5h30.05c.44,0,.82-.17,1.12-.5.31-.33.46-.72.46-1.16v-9.8c0-.49-.15-.87-.46-1.16-.31-.29-.68-.43-1.12-.43h-30.25c-1.54,0-2.98-.4-4.3-1.19-1.32-.79-2.37-1.84-3.14-3.14-.77-1.3-1.16-2.75-1.16-4.34v-10.19c0-1.59.39-3.03,1.16-4.34.77-1.3,1.82-2.34,3.14-3.11,1.32-.77,2.76-1.16,4.3-1.16h30.45c1.54,0,2.98.39,4.3,1.16,1.32.77,2.37,1.81,3.14,3.11.77,1.3,1.16,2.75,1.16,4.34v2.78h-7.22v-2.58c0-.44-.15-.83-.46-1.16-.31-.33-.68-.5-1.12-.5h-30.05c-.44,0-.83.17-1.16.5-.33.33-.5.72-.5,1.16v9.8c0,.49.17.87.5,1.16.33.29.72.43,1.16.43h30.25c1.54,0,2.98.4,4.3,1.19,1.32.79,2.37,1.84,3.14,3.14.77,1.3,1.16,2.75,1.16,4.33v10.19c0,1.59-.39,3.04-1.16,4.34-.77,1.3-1.82,2.34-3.14,3.11-1.32.77-2.76,1.16-4.3,1.16h-30.45Z"/>
    <path class="st2" d="M784.83,431.18v-47.66h43.69v7.15h-36.47v13.04h29.32v7.28h-29.32v13.04h36.47v7.15h-43.69Z"/>
    <path class="st2" d="M835.4,431.18v-47.59h38.99c1.59,0,3.04.4,4.37,1.19,1.32.79,2.37,1.84,3.14,3.14.77,1.3,1.16,2.73,1.16,4.27v13.37c0,1.59-.39,3.03-1.16,4.34-.77,1.3-1.82,2.34-3.14,3.11-1.32.77-2.78,1.16-4.37,1.16l-31.84.07v16.95h-7.15ZM844.21,406.96h29.99c.49,0,.88-.15,1.19-.46.31-.31.46-.68.46-1.13v-12.97c0-.44-.16-.83-.46-1.16-.31-.33-.71-.5-1.19-.5h-29.99c-.44,0-.83.17-1.16.5-.33.33-.5.72-.5,1.16v12.97c0,.44.17.82.5,1.13s.72.46,1.16.46ZM874.46,431.18l-14.89-17.81h9.33l13.9,16.48v1.32h-8.34Z"/>
    <path class="st2" d="M914.64,431.18l-27.6-47.66h8.34l22.84,39.58,22.71-39.58h8.34l-27.54,47.66h-7.08Z"/>
    <path class="st2" d="M954.95,431.18v-47.66h43.69v7.15h-36.47v13.04h29.32v7.28h-29.32v13.04h36.47v7.15h-43.69Z"/>
    <path class="st2" d="M1005.52,431.18v-47.59h38.99c1.59,0,3.04.4,4.37,1.19,1.32.79,2.37,1.84,3.14,3.14.77,1.3,1.16,2.73,1.16,4.27v13.37c0,1.59-.39,3.03-1.16,4.34-.77,1.3-1.82,2.34-3.14,3.11-1.32.77-2.78,1.16-4.37,1.16l-31.84.07v16.95h-7.15ZM1014.33,406.96h29.99c.49,0,.88-.15,1.19-.46.31-.31.46-.68.46-1.13v-12.97c0-.44-.16-.83-.46-1.16-.31-.33-.71-.5-1.19-.5h-29.99c-.44,0-.83.17-1.16.5-.33.33-.5.72-.5,1.16v12.97c0,.44.17.82.5,1.13s.72.46,1.16.46ZM1044.58,431.18l-14.89-17.81h9.33l13.9,16.48v1.32h-8.34Z"/>
    <path class="st2" d="M1060,439.92v-15.62h7.15v7.15c0,1.37-.31,2.62-.93,3.74-.62,1.12-1.47,2.11-2.55,2.95-1.08.84-2.31,1.43-3.67,1.79Z"/>
    <path class="st2" d="M1112.69,431.18v-17.87l-21.98-29.79h8.41l17.14,21.65,17.08-21.65h8.47l-21.98,29.79v17.87h-7.15Z"/>
    <path class="st2" d="M1155.12,431.18c-1.59,0-3.03-.39-4.34-1.16-1.3-.77-2.34-1.81-3.11-3.11-.77-1.3-1.16-2.75-1.16-4.34v-30.45c0-1.59.39-3.03,1.16-4.34.77-1.3,1.81-2.34,3.11-3.11,1.3-.77,2.75-1.16,4.34-1.16h30.45c1.54,0,2.98.39,4.3,1.16,1.32.77,2.37,1.81,3.14,3.11.77,1.3,1.16,2.75,1.16,4.34v30.45c0,1.59-.39,3.04-1.16,4.34-.77,1.3-1.82,2.34-3.14,3.11-1.32.77-2.76,1.16-4.3,1.16h-30.45ZM1155.32,424.03h29.99c.49,0,.88-.17,1.19-.5.31-.33.46-.72.46-1.16v-30.05c0-.44-.15-.83-.46-1.16-.31-.33-.71-.5-1.19-.5h-29.99c-.44,0-.83.17-1.16.5s-.5.72-.5,1.16v30.05c0,.44.17.83.5,1.16s.72.5,1.16.5Z"/>
    <path class="st2" d="M1205.6,430.03c-1.3-.77-2.34-1.81-3.11-3.11-.77-1.3-1.16-2.75-1.16-4.34v-39.05h7.15v38.86c0,.44.17.83.5,1.16.33.33.72.5,1.16.5h29.99c.48,0,.88-.17,1.19-.5.31-.33.46-.72.46-1.16v-38.86h7.21v39.05c0,1.59-.39,3.04-1.16,4.34-.77,1.3-1.82,2.34-3.14,3.11-1.32.77-2.76,1.16-4.3,1.16h-30.45c-1.59,0-3.04-.39-4.34-1.16Z"/>
    <path class="st2" d="M1256.27,431.18v-47.59h38.99c1.59,0,3.04.4,4.37,1.19,1.32.79,2.37,1.84,3.14,3.14.77,1.3,1.16,2.73,1.16,4.27v13.37c0,1.59-.39,3.03-1.16,4.34-.77,1.3-1.82,2.34-3.14,3.11-1.32.77-2.78,1.16-4.37,1.16l-31.84.07v16.95h-7.15ZM1265.07,406.96h29.99c.49,0,.88-.15,1.19-.46s.46-.68.46-1.13v-12.97c0-.44-.16-.83-.46-1.16-.31-.33-.71-.5-1.19-.5h-29.99c-.44,0-.83.17-1.16.5-.33.33-.5.72-.5,1.16v12.97c0,.44.17.82.5,1.13s.72.46,1.16.46ZM1295.32,431.18l-14.89-17.81h9.33l13.9,16.48v1.32h-8.34Z"/>
    <path class="st2" d="M1330.08,431.18v-47.66h8.54l31.91,38v-38h7.21v47.66h-8.54l-31.97-38.06v38.06h-7.15Z"/>
    <path class="st2" d="M1385.28,431.18v-47.66h43.69v7.15h-36.47v13.04h29.32v7.28h-29.32v13.04h36.47v7.15h-43.69Z"/>
    <path class="st2" d="M1453.73,431.18v-40.51h-20.26v-7.15h47.66v7.15h-20.19v40.51h-7.21Z"/>
    <path class="st2" d="M1502.05,431.18l-17.34-47.66h7.61l12.64,34.69,12.64-34.69h7.55l12.71,34.69,12.58-34.69h7.68l-17.34,47.66h-5.89l-13.5-37.07-13.5,37.07h-5.83Z"/>
    <path class="st2" d="M1570.56,431.18c-1.59,0-3.03-.39-4.34-1.16-1.3-.77-2.34-1.81-3.11-3.11-.77-1.3-1.16-2.75-1.16-4.34v-30.45c0-1.59.39-3.03,1.16-4.34.77-1.3,1.81-2.34,3.11-3.11,1.3-.77,2.75-1.16,4.34-1.16h30.45c1.54,0,2.98.39,4.3,1.16,1.32.77,2.37,1.81,3.14,3.11s1.16,2.75,1.16,4.34v30.45c0,1.59-.39,3.04-1.16,4.34-.77,1.3-1.82,2.34-3.14,3.11-1.32.77-2.76,1.16-4.3,1.16h-30.45ZM1570.76,424.03h29.99c.48,0,.88-.17,1.19-.5.31-.33.46-.72.46-1.16v-30.05c0-.44-.16-.83-.46-1.16-.31-.33-.71-.5-1.19-.5h-29.99c-.44,0-.83.17-1.16.5s-.5.72-.5,1.16v30.05c0,.44.17.83.5,1.16s.72.5,1.16.5Z"/>
    <path class="st2" d="M1616.9,431.18v-47.59h38.99c1.59,0,3.04.4,4.37,1.19,1.32.79,2.37,1.84,3.14,3.14.77,1.3,1.16,2.73,1.16,4.27v13.37c0,1.59-.39,3.03-1.16,4.34-.77,1.3-1.82,2.34-3.14,3.11-1.32.77-2.78,1.16-4.37,1.16l-31.84.07v16.95h-7.15ZM1625.7,406.96h29.99c.49,0,.88-.15,1.19-.46s.46-.68.46-1.13v-12.97c0-.44-.16-.83-.46-1.16-.31-.33-.71-.5-1.19-.5h-29.99c-.44,0-.83.17-1.16.5-.33.33-.5.72-.5,1.16v12.97c0,.44.17.82.5,1.13s.72.46,1.16.46ZM1655.95,431.18l-14.89-17.81h9.33l13.9,16.48v1.32h-8.34Z"/>
    <path class="st2" d="M1671.57,431.18v-47.66h7.21v20.19h13.17l16.95-20.19h8.27v1.32l-18.87,22.51,18.93,22.51v1.32h-8.34l-16.95-20.19h-13.17v20.19h-7.21Z"/>
    <path class="st2" d="M1724.13,439.92v-15.62h7.15v7.15c0,1.37-.31,2.62-.93,3.74-.62,1.12-1.47,2.11-2.55,2.95-1.08.84-2.31,1.43-3.67,1.79Z"/>
    <path class="st2" d="M1776.82,431.18v-17.87l-21.98-29.79h8.41l17.14,21.65,17.08-21.65h8.47l-21.98,29.79v17.87h-7.15Z"/>
    <path class="st2" d="M1819.25,431.18c-1.59,0-3.03-.39-4.34-1.16-1.3-.77-2.34-1.81-3.11-3.11-.77-1.3-1.16-2.75-1.16-4.34v-30.45c0-1.59.39-3.03,1.16-4.34.77-1.3,1.81-2.34,3.11-3.11,1.3-.77,2.75-1.16,4.34-1.16h30.45c1.54,0,2.98.39,4.3,1.16,1.32.77,2.37,1.81,3.14,3.11s1.16,2.75,1.16,4.34v30.45c0,1.59-.39,3.04-1.16,4.34-.77,1.3-1.82,2.34-3.14,3.11-1.32.77-2.76,1.16-4.3,1.16h-30.45ZM1819.45,424.03h29.99c.48,0,.88-.17,1.19-.5.31-.33.46-.72.46-1.16v-30.05c0-.44-.16-.83-.46-1.16-.31-.33-.71-.5-1.19-.5h-29.99c-.44,0-.83.17-1.16.5s-.5.72-.5,1.16v30.05c0,.44.17.83.5,1.16s.72.5,1.16.5Z"/>
    <path class="st2" d="M1869.73,430.03c-1.3-.77-2.34-1.81-3.11-3.11-.77-1.3-1.16-2.75-1.16-4.34v-39.05h7.15v38.86c0,.44.17.83.5,1.16s.72.5,1.16.5h29.99c.48,0,.88-.17,1.19-.5.31-.33.46-.72.46-1.16v-38.86h7.22v39.05c0,1.59-.39,3.04-1.16,4.34-.77,1.3-1.82,2.34-3.14,3.11-1.32.77-2.76,1.16-4.3,1.16h-30.45c-1.59,0-3.03-.39-4.34-1.16Z"/>
    <path class="st2" d="M1920.4,431.18v-47.59h38.99c1.59,0,3.04.4,4.37,1.19,1.32.79,2.37,1.84,3.14,3.14.77,1.3,1.16,2.73,1.16,4.27v13.37c0,1.59-.39,3.03-1.16,4.34-.77,1.3-1.82,2.34-3.14,3.11-1.32.77-2.78,1.16-4.37,1.16l-31.84.07v16.95h-7.15ZM1929.2,406.96h29.99c.49,0,.88-.15,1.19-.46s.46-.68.46-1.13v-12.97c0-.44-.16-.83-.46-1.16-.31-.33-.71-.5-1.19-.5h-29.99c-.44,0-.83.17-1.16.5-.33.33-.5.72-.5,1.16v12.97c0,.44.17.82.5,1.13s.72.46,1.16.46ZM1959.45,431.18l-14.89-17.81h9.33l13.9,16.48v1.32h-8.34Z"/>
    <path class="st2" d="M1994.21,431.18v-47.59h38.99c1.59,0,3.04.4,4.37,1.19,1.32.79,2.37,1.84,3.14,3.14.77,1.3,1.16,2.73,1.16,4.27v13.37c0,1.59-.39,3.03-1.16,4.34-.77,1.3-1.82,2.34-3.14,3.11-1.32.77-2.78,1.16-4.37,1.16l-31.84.07v16.95h-7.15ZM2003.01,406.96h29.99c.49,0,.88-.15,1.19-.46s.46-.68.46-1.13v-12.97c0-.44-.16-.83-.46-1.16-.31-.33-.71-.5-1.19-.5h-29.99c-.44,0-.83.17-1.16.5-.33.33-.5.72-.5,1.16v12.97c0,.44.17.82.5,1.13s.72.46,1.16.46Z"/>
    <path class="st2" d="M2046.56,431.18v-47.59h38.99c1.59,0,3.04.4,4.37,1.19,1.32.79,2.37,1.84,3.14,3.14.77,1.3,1.16,2.73,1.16,4.27v13.37c0,1.59-.39,3.03-1.16,4.34-.77,1.3-1.82,2.34-3.14,3.11-1.32.77-2.78,1.16-4.37,1.16l-31.84.07v16.95h-7.15ZM2055.37,406.96h29.99c.49,0,.88-.15,1.19-.46s.46-.68.46-1.13v-12.97c0-.44-.16-.83-.46-1.16-.31-.33-.71-.5-1.19-.5h-29.99c-.44,0-.83.17-1.16.5-.33.33-.5.72-.5,1.16v12.97c0,.44.17.82.5,1.13s.72.46,1.16.46ZM2085.62,431.18l-14.89-17.81h9.33l13.9,16.48v1.32h-8.34Z"/>
    <path class="st2" d="M2100.98,431.18v-47.66h7.15v47.66h-7.15Z"/>
    <path class="st2" d="M2141.55,431.18l-27.6-47.66h8.34l22.84,39.58,22.7-39.58h8.34l-27.54,47.66h-7.08Z"/>
    <path class="st2" d="M2180.01,392.13c0-1.59.39-3.03,1.16-4.34.77-1.3,1.81-2.34,3.11-3.11,1.3-.77,2.75-1.16,4.33-1.16h30.38c1.59,0,3.04.39,4.37,1.16,1.32.77,2.37,1.81,3.14,3.11.77,1.3,1.16,2.75,1.16,4.34v39.05h-7.22v-16.68h-33.3v16.68h-7.15v-39.05ZM2220.46,407.35v-15.03c0-.44-.16-.83-.46-1.16-.31-.33-.71-.5-1.19-.5h-29.99c-.44,0-.83.17-1.16.5-.33.33-.5.72-.5,1.16v15.03h33.3Z"/>
    <path class="st2" d="M2243.82,431.18c-1.59,0-3.04-.39-4.34-1.16-1.3-.77-2.34-1.81-3.11-3.11-.77-1.3-1.16-2.75-1.16-4.34v-30.45c0-1.59.39-3.03,1.16-4.34.77-1.3,1.81-2.34,3.11-3.11,1.3-.77,2.75-1.16,4.34-1.16h38.92v7.15h-37.93c-.71,0-1.29.23-1.75.7-.46.46-.69,1.05-.69,1.75v28.46c0,.71.23,1.29.69,1.75.46.46,1.05.69,1.75.69h37.93v7.15h-38.92Z"/>
    <path class="st2" d="M2309.03,431.18v-17.87l-21.98-29.79h8.41l17.14,21.65,17.08-21.65h8.47l-21.98,29.79v17.87h-7.15Z"/>
  </g>
  <g id="Phantom_Text" class="text">
    <path d="M489.67,343.86V110.84h186.36c8.64,0,16.47,2.11,23.5,6.32,7.02,4.21,12.69,9.88,17.02,17.02,4.32,7.13,6.48,14.91,6.48,23.33v61.58c0,8.43-2.16,16.15-6.48,23.17-4.32,7.02-10,12.64-17.02,16.85-7.02,4.21-14.86,6.32-23.5,6.32l-139.69.32v78.11h-46.67ZM538.29,218.44h135.47c.65,0,1.13-.16,1.46-.49.32-.32.49-.7.49-1.13v-57.37c0-.65-.16-1.13-.49-1.46-.32-.32-.81-.49-1.46-.49h-135.47c-.65,0-1.13.16-1.46.49-.32.32-.49.81-.49,1.46v57.37c0,.44.16.81.49,1.13.32.32.81.49,1.46.49Z"/>
    <path d="M746.36,343.86V110.51h46.67v93.02h144.87v-93.02h46.67v233.35h-46.67v-93.02h-144.87v93.02h-46.67Z"/>
    <path d="M1022.49,157.18c0-8.64,2.11-16.47,6.32-23.5,4.21-7.02,9.83-12.64,16.85-16.85,7.02-4.21,14.85-6.32,23.5-6.32h139.69c8.64,0,16.47,2.11,23.5,6.32,7.02,4.21,12.69,9.83,17.02,16.85,4.32,7.02,6.48,14.86,6.48,23.5v186.68h-47.32v-76.81h-139.36v76.81h-46.67v-186.68ZM1208.52,220.38v-60.93c0-.65-.16-1.13-.49-1.46-.32-.32-.81-.49-1.46-.49h-135.47c-.65,0-1.13.16-1.46.49s-.49.81-.49,1.46v60.93h139.36Z"/>
    <path d="M1292.78,343.86V110.51h49.59l136.45,162.7V110.51h47.32v233.35h-49.59l-137.09-163.35v163.35h-46.67Z"/>
    <path d="M1644.1,343.86v-186.36h-93.34v-46.99h233.35v46.99h-93.02v186.36h-46.99Z"/>
    <path d="M1854.43,343.86c-8.64,0-16.48-2.11-23.5-6.32-7.02-4.21-12.64-9.83-16.85-16.85-4.21-7.02-6.32-14.85-6.32-23.5v-140.01c0-8.64,2.11-16.47,6.32-23.5,4.21-7.02,9.83-12.64,16.85-16.85,7.02-4.21,14.85-6.32,23.5-6.32h140.01c8.43,0,16.15,2.11,23.17,6.32,7.02,4.21,12.69,9.83,17.01,16.85,4.32,7.02,6.48,14.86,6.48,23.5v140.01c0,8.64-2.16,16.48-6.48,23.5-4.32,7.02-10,12.64-17.01,16.85-7.02,4.21-14.75,6.32-23.17,6.32h-140.01ZM1856.38,296.87h135.47c.65,0,1.13-.16,1.46-.49s.49-.81.49-1.46v-135.47c0-.65-.16-1.13-.49-1.46-.32-.32-.81-.49-1.46-.49h-135.47c-.65,0-1.13.16-1.46.49-.32.32-.49.81-.49,1.46v135.47c0,.65.16,1.13.49,1.46s.81.49,1.46.49Z"/>
    <path d="M2076.76,343.86V110.51h49.59l81.67,97.55,81.35-97.55h49.91v233.35h-46.99v-163.67l-84.27,100.79-84.59-100.47v163.35h-46.67Z"/>
  </g>
</svg>