<svg xmlns="http://www.w3.org/2000/svg" viewBox="0 0 64 64">
  <!-- Background -->
  <circle cx="32" cy="32" r="32" fill="#0F172A"/>
  <!-- Wheel segments -->
  <g transform="translate(32,32)">
    <path d="M0,0 L0,-27 A27,27 0 0,1 23.4,-13.5 Z" fill="#4ADE80" opacity="0.9"/>
    <path d="M0,0 L23.4,-13.5 A27,27 0 0,1 23.4,13.5 Z" fill="#10B981" opacity="0.7"/>
    <path d="M0,0 L23.4,13.5 A27,27 0 0,1 0,27 Z" fill="#4ADE80" opacity="0.9"/>
    <path d="M0,0 L0,27 A27,27 0 0,1 -23.4,13.5 Z" fill="#10B981" opacity="0.7"/>
    <path d="M0,0 L-23.4,13.5 A27,27 0 0,1 -23.4,-13.5 Z" fill="#4ADE80" opacity="0.9"/>
    <path d="M0,0 L-23.4,-13.5 A27,27 0 0,1 0,-27 Z" fill="#10B981" opacity="0.7"/>
  </g>
  <!-- Outer ring -->
  <circle cx="32" cy="32" r="27" fill="none" stroke="#86EFAC" stroke-width="1.5" opacity="0.4"/>
  <!-- Center hub -->
  <circle cx="32" cy="32" r="6" fill="#0F172A" stroke="#4ADE80" stroke-width="1.5"/>
  <!-- Pointer -->
  <polygon points="32,2 28,9 36,9" fill="#4ADE80"/>
</svg>
