<svg xmlns="http://www.w3.org/2000/svg" style="display: none;">
  <!-- Turkish Flag -->
  <symbol id="flag-tr" viewBox="0 0 1200 800">
    <rect width="1200" height="800" fill="#E30A17" />
    <circle cx="480" cy="400" r="200" fill="#fff" />
    <circle cx="520" cy="400" r="160" fill="#E30A17" />
    <polygon fill="#fff" points="583,400 631,340 609,390 666,366 618,400 666,434 609,410 631,460 583,400 541,434 568,410 530,434 568,400 530,366 568,390 541,340" />
  </symbol>

  <!-- US Flag -->
  <symbol id="flag-us" viewBox="0 0 7410 3900">
    <rect width="7410" height="3900" fill="#B22234" />
    <path d="M0,450H7410m0,600H0m0,600H7410m0,600H0m0,600H7410m0,600H0" stroke="#fff" stroke-width="300" />
    <rect width="2964" height="2100" fill="#3C3B6E" />
    <g fill="#fff">
      <g id="s18">
        <g id="s9">
          <g id="s5">
            <g id="s4">
              <path id="s" d="M247,90 317.534230,307.082039 132.873218,172.917961H361.126782L176.465770,307.082039z" />
              <use href="#s" y="420" />
              <use href="#s" y="840" />
              <use href="#s" y="1260" />
            </g>
            <use href="#s" y="1680" />
          </g>
          <use href="#s4" x="247" y="210" />
        </g>
        <use href="#s9" x="494" />
      </g>
      <use href="#s18" x="988" />
    </g>
  </symbol>

  <!-- Checkmark -->
  <symbol id="icon-checkmark" viewBox="0 0 24 24">
    <path d="M12 2C6.48 2 2 6.48 2 12s4.48 10 10 10 10-4.48 10-10S17.52 2 12 2zm-2 15l-5-5 1.41-1.41L10 14.17l7.59-7.59L19 8l-9 9z" />
  </symbol>
</svg>
